<?xml version="1.0" encoding="utf-8"?>
<!-- Generator: Adobe Illustrator 23.0.4, SVG Export Plug-In . SVG Version: 6.00 Build 0)  -->
<svg version="1.1" id="Layer_1" xmlns="http://www.w3.org/2000/svg" xmlns:xlink="http://www.w3.org/1999/xlink" x="0px" y="0px"
	 viewBox="0 0 381 150" style="enable-background:new 0 0 381 150;" xml:space="preserve">
<style type="text/css">
	.st0{fill:#FFFFFF;}
</style>
<g>
	<polygon class="st0" points="39.16,35.93 23.46,15.7 -0.14,15.7 16.08,35.91 	"/>
	<polygon class="st0" points="0.27,87.79 0.27,78.9 8.27,78.9 8.27,70.33 15.72,70.33 15.72,61.98 23.15,61.98 23.15,54.04 
		34.45,54.04 34.45,54.04 34.45,62.37 21.95,87.79 	"/>
	<path class="st0" d="M26.23,88.02"/>
	<polygon class="st0" points="42.92,35.93 58.62,15.7 82.22,15.7 66,35.91 	"/>
	<polygon class="st0" points="40.44,38.49 37.92,38.49 18.01,38.97 21.25,43.49 37.92,43.49 40.44,43.49 60.82,43.49 64.14,38.9 	
		"/>
	<path class="st0" d="M60.53,46.59c0.1,0.1-17.21-0.2-21.28-0.2c-3.39,0-17.81,0.3-17.7,0.2l-2.38,4.34h19.22h1.59h22.94
		L60.53,46.59z"/>
	<polygon class="st0" points="81.81,87.79 81.81,78.9 73.81,78.9 73.81,70.33 66.36,70.33 66.36,61.98 58.93,61.98 58.93,54.04 
		47.63,54.04 47.63,54.04 47.63,62.37 60.13,87.79 	"/>
	<path class="st0" d="M63.88,88.02"/>
	<polygon class="st0" points="47.73,69.42 45.85,65.59 36.19,65.61 34.36,69.45 	"/>
	<polygon class="st0" points="51.74,78.37 49.94,74.47 32.07,74.47 30.35,78.37 	"/>
	<polygon class="st0" points="54.18,83.47 41.04,83.53 27.9,83.47 26.08,87.28 39.72,87.28 42.36,87.28 56,87.28 	"/>
	<rect x="36.98" y="74.53" class="st0" width="5.52" height="3.81"/>
	<rect x="86.77" y="15.82" class="st0" width="20.99" height="71.91"/>
	<rect x="223.21" y="15.82" class="st0" width="20.99" height="71.91"/>
	<rect x="252.72" y="15.82" class="st0" width="20.99" height="71.91"/>
	<polygon class="st0" points="340.75,87.73 319.76,87.73 319.76,28.3 340.75,63.77 	"/>
	<polygon class="st0" points="380.44,74.68 359.45,39.21 359.45,15.82 380.44,15.82 	"/>
	<polygon class="st0" points="220.1,42.06 205.96,42.06 205.96,15.82 184.97,15.82 184.97,87.73 205.96,87.73 205.96,61.49 
		220.1,61.49 	"/>
	<rect x="276.81" y="42.06" class="st0" width="20.99" height="19.43"/>
	<rect x="276.81" y="15.86" class="st0" width="33.27" height="19.43"/>
	<rect x="276.81" y="68.49" class="st0" width="33.27" height="19.43"/>
	<path class="st0" d="M160.85,61.49c-2.96,4.37-7.81,7.23-13.31,7.23c-9.02,0-16.34-7.67-16.34-17.14c0-9.46,7.31-17.14,16.34-17.14
		c5.66,0,10.65,3.02,13.58,7.61h20.36c-4.02-15.73-17.67-27.32-33.93-27.32c-19.43,0-35.17,16.52-35.17,36.89
		c0,20.38,15.75,36.89,35.17,36.89c16.16,0,29.75-11.45,33.86-27.03H160.85z"/>
	<path class="st0" d="M358.77,87.67h22.09v-6.36l-39.22-65.57c0,0-22.09,0.16-22.01,0.08v6.36L358.77,87.67z"/>
	<g>
		<path class="st0" d="M228.91,111.31c-1.55,0-2.98,0.42-4.26,1.25v-8.64h-3.45v22.65h3.45v-1.25c1.26,0.83,2.66,1.25,4.17,1.25
			h0.09c1.62,0,3.15-0.52,4.56-1.55c1.99-1.63,2.99-3.63,2.99-5.93v-0.29c0-1.6-0.53-3.11-1.57-4.52
			C233.26,112.3,231.25,111.31,228.91,111.31z M233.02,119.09c0,0.77-0.27,1.54-0.79,2.29c-0.91,1.17-2.01,1.74-3.38,1.74
			c-0.68,0-1.37-0.17-2.02-0.5c-1.47-0.96-2.18-2.16-2.18-3.67c0-0.7,0.21-1.44,0.59-2.17c0.97-1.36,2.13-2.02,3.54-2.02
			c0.99,0,1.89,0.31,2.65,0.91c1.05,0.92,1.59,1.98,1.59,3.14V119.09z"/>
		<path class="st0" d="M250.56,118.08c0,0.59-0.13,1.29-0.38,2.09c-0.63,1.99-1.86,2.95-3.75,2.95c-0.96,0-1.77-0.23-2.38-0.68
			c-1.23-1.08-1.85-2.69-1.85-4.8v-6.33h-3.45v6.29c0,1.49,0.24,2.89,0.73,4.17c1.31,3.18,3.63,4.8,6.89,4.8
			c1.61,0,3.02-0.4,4.2-1.2v2.37c0,0.42-0.1,0.97-0.28,1.63c-0.65,1.75-1.86,2.61-3.7,2.61h-0.25v3.44h0.25
			c2.27,0,4.19-0.86,5.69-2.57c1.14-1.62,1.72-3.29,1.72-4.95v-16.59h-3.44V118.08z"/>
		<path class="st0" d="M326.5,104.32h-2.65v2.21h-0.06c-2.05-1.48-4.29-2.21-6.7-2.21c-2.31,0-4.46,0.68-6.45,2.02
			c-3.22,2.44-4.84,5.53-4.84,9.27c0,2.41,0.76,4.69,2.27,6.82c2.46,2.95,5.39,4.43,8.76,4.43h0.6c2.18,0,4.32-0.74,6.42-2.22v2.22
			h4.49v-20.71C328.33,105.15,327.51,104.32,326.5,104.32z M323.84,115.83c0,1.22-0.41,2.45-1.23,3.7c-1.52,1.9-3.29,2.85-5.34,2.85
			h-0.29c-1.05,0-2.09-0.26-3.1-0.79c-2.4-1.49-3.6-3.49-3.6-6.01c0-1.34,0.43-2.64,1.29-3.91c1.49-1.9,3.31-2.85,5.47-2.85
			c1.15,0,2.31,0.32,3.45,0.94c2.23,1.49,3.35,3.41,3.35,5.76V115.83z"/>
		<path class="st0" d="M300.95,120.26c-1.33,1.29-2.9,1.94-4.71,1.94c-1.11,0-2.2-0.28-3.29-0.85c-2.34-1.51-3.5-3.49-3.5-5.91
			c0-1.16,0.33-2.34,0.98-3.54c1.54-2.17,3.45-3.26,5.72-3.26c1.85,0,3.42,0.61,4.69,1.84c0.62,0.6,1.6,0.55,2.16-0.1
			c0.85-1,1.86-2.19,1.86-2.19c-2.36-2.68-5.21-4.04-8.55-4.04c-2.88,0-5.43,0.97-7.65,2.91c-2.47,2.39-3.7,5.17-3.7,8.34
			c0,2.48,0.77,4.78,2.31,6.89c2.43,2.93,5.4,4.4,8.94,4.4h0.13c2.56,0,4.89-0.84,7.01-2.52c0.68-0.61,1.21-1.12,1.58-1.54
			l-1.95-2.26C302.46,119.75,301.53,119.7,300.95,120.26z"/>
		<path class="st0" d="M356.91,104.32c-2.75,0-5.2,0.89-7.36,2.66c-2.66,2.42-3.99,5.29-3.99,8.63c0,2.62,0.89,5.04,2.66,7.26
			c2.38,2.66,5.24,3.99,8.59,3.99h0.1c2.86,0,5.39-1.01,7.6-3.01l-2.84-3.42l-0.02-0.02c-1.43,1.31-3.03,1.97-4.8,1.97
			c-1.05,0-2.07-0.25-3.04-0.73c-0.94-0.5-1.7-1.13-2.28-1.88c-0.62-0.79-0.08-1.94,0.92-1.94h15.46c0.13-0.65,0.2-1.4,0.23-2.25
			c0-2.61-0.89-5.03-2.66-7.27C363.09,105.65,360.23,104.32,356.91,104.32z M361.67,113.36H350.5c0,0,0.94-4.49,6.32-4.55
			c1.09-0.01,2.21,0.28,3.35,0.85c0.98,0.62,1.74,1.34,2.3,2.18C362.91,112.49,362.45,113.36,361.67,113.36z"/>
		<path class="st0" d="M285.18,106.13c0.66-0.79,0.1-1.98-0.93-1.98h-3.24l-0.58,0.64l-5.88,7.11l-6.51-7.75h0l0,0h-5.62l0.85,1.01
			l8.28,10.24v0.04l-9.32,11.19v0.06h5.88l6.39-7.74l6.54,7.76h5.89l-9.46-11.3L285.18,106.13z"/>
		<path class="st0" d="M378.59,104.15h-2.01v-7.87c0-1.01-0.82-1.83-1.83-1.83h-2.51v9.7h-4.02v4.49h4.02v18.05h4.34v-18.05h3.85
			v-2.65C380.44,104.97,379.61,104.15,378.59,104.15z"/>
		<path class="st0" d="M345.6,104.15c-3.58,0-6.57,0.85-8.96,2.56h-0.06v-0.73c0-1.01-0.82-1.83-1.84-1.83h-2.65v22.54h4.49v-11.04
			c0-0.76,0.18-1.58,0.54-2.46c1.31-3.03,4.13-4.55,8.48-4.55V104.15z"/>
	</g>
</g>
</svg>
