<?xml version="1.0" encoding="utf-8"?>
<!-- Generator: Adobe Illustrator 23.0.4, SVG Export Plug-In . SVG Version: 6.00 Build 0)  -->
<svg version="1.1" id="Layer_1" xmlns="http://www.w3.org/2000/svg" xmlns:xlink="http://www.w3.org/1999/xlink" x="0px" y="0px"
	 viewBox="0 0 140 34" style="enable-background:new 0 0 140 34;" xml:space="preserve">
<style type="text/css">
	.st0{fill:#FFFFFF;}
</style>
<g>
	<path class="st0" d="M66.6,2.4h0.1l0.2,0c0.6-0.2,0.9-0.6,0.9-1.2l0-0.3C67.6,0.3,67.2,0,66.7,0l-0.3,0.1c-0.6,0.2-0.9,0.6-0.9,1.1
		v0.1l0,0.2C65.7,2.1,66.1,2.4,66.6,2.4z"/>
	<path class="st0" d="M85.2,9.2c0-0.5,0.1-1,0.3-1.5c0.3-0.7,0.7-1.2,1.2-1.6c0,0,0.1,0,0.1-0.1C86.9,6,87,6,87.1,5.9
		c0.1,0,0.1-0.1,0.2-0.1c0.1,0,0.2-0.1,0.3-0.1c0.1,0,0.2,0,0.2-0.1c0.1,0,0.2,0,0.3-0.1c0.1,0,0.1,0,0.2,0c0.1,0,0.3,0,0.4,0
		c0,0,0,0,0.1,0c0,0,0,0,0.1,0c0.2,0,0.3,0,0.4,0c0.1,0,0.1,0,0.2,0c0.1,0,0.2,0,0.3,0.1c0.1,0,0.2,0,0.2,0.1c0.1,0,0.2,0.1,0.3,0.1
		c0.1,0,0.1,0.1,0.2,0.1c0.1,0,0.2,0.1,0.3,0.1c0,0,0.1,0,0.1,0.1c0.5,0.4,0.9,0.9,1.2,1.6c0.2,0.5,0.3,1,0.3,1.5v5.9h2.4V9.1
		c0-0.7-0.1-1.5-0.4-2.3c-0.5-1.1-1.1-1.9-2-2.5c-0.8-0.6-1.8-0.9-2.9-1c0,0-0.1,0-0.1,0c-0.1,0-0.2,0-0.3,0c-0.1,0-0.1,0-0.2,0
		c0,0,0,0,0,0c0,0,0,0,0,0c-0.1,0-0.1,0-0.2,0c-0.1,0-0.2,0-0.3,0c0,0-0.1,0-0.1,0c-1.2,0.1-2.1,0.4-2.9,1c-0.8,0.6-1.5,1.4-2,2.5
		c-0.3,0.8-0.4,1.5-0.4,2.3v6.1h2.4V9.2z"/>
	<rect x="65.5" y="3.2" class="st0" width="2.4" height="11.9"/>
	<path class="st0" d="M59.3,9.3c0-0.4,0.1-0.8,0.3-1.3c0.7-1.6,2.2-2.4,4.5-2.4V3.2c-1.9,0-3.5,0.5-4.7,1.4h0V3.2h-2.4v11.9h2.4V9.3
		z"/>
	<path class="st0" d="M8.4,3.2c-1.5,0-2.8,0.5-3.9,1.4C3.1,5.9,2.3,7.4,2.3,9.2c0,1.4,0.5,2.7,1.4,3.8c1.3,1.4,2.8,2.1,4.5,2.1h0
		c1.5,0,2.8-0.5,4-1.6l-1.5-1.8c-0.8,0.7-1.6,1-2.5,1c-0.6,0-1.1-0.1-1.6-0.4c-0.9-0.5-1.5-1.1-1.8-2h9.2c0.1-0.3,0.1-0.7,0.1-1.2
		c0-1.4-0.5-2.7-1.4-3.8C11.6,3.9,10.1,3.2,8.4,3.2z M5,8l0.2-0.6C6,6.2,7,5.6,8.3,5.6c0.6,0,1.2,0.1,1.8,0.4c0.8,0.5,1.3,1.2,1.6,2
		H5z"/>
	<path class="st0" d="M65.4,22.9L65.4,22.9c-1.2-0.8-2.4-1.2-3.7-1.2c-1.3,0-2.4,0.4-3.5,1.1c-1.8,1.3-2.7,3-2.7,5.1
		c0,1.3,0.4,2.6,1.2,3.7c1.4,1.6,3,2.4,4.8,2.4h0.3c1.2,0,2.4-0.4,3.5-1.2V34h2.5V21.6h-2.5V22.9z M65.4,27.9c0,0.7-0.2,1.3-0.7,2
		c-0.8,1-1.8,1.6-2.9,1.6h-0.2c-0.6,0-1.1-0.1-1.7-0.4c-1.3-0.8-2-1.9-2-3.3c0-0.7,0.2-1.4,0.7-2.1c0.8-1,1.8-1.6,3-1.6
		c0.6,0,1.3,0.2,1.9,0.5c1.2,0.8,1.8,1.9,1.8,3.2V27.9z"/>
	<rect x="108.8" y="3.2" class="st0" width="2.4" height="11.9"/>
	<polygon class="st0" points="94.7,16.3 92.3,16.3 92.3,21.6 90.1,21.6 90.1,24.1 92.3,24.1 92.3,34 94.7,34 94.7,24.1 96.8,24.1 
		96.8,21.6 94.7,21.6 	"/>
	<path class="st0" d="M102.3,12.8c-0.6,0-1.2-0.2-1.7-0.4c-1.2-0.8-1.9-1.8-1.9-3.1c0-0.6,0.2-1.2,0.5-1.9c0.8-1.1,1.8-1.7,3-1.7
		c1.3,0,2.3,0.5,3,1.6c0,0,0,0,0,0l1.6-1.9c-1.2-1.4-2.8-2.1-4.5-2.1c-1.5,0-2.9,0.5-4,1.5c-1.3,1.3-2,2.7-2,4.4
		c0,1.3,0.4,2.5,1.2,3.7c1.3,1.5,2.9,2.3,4.7,2.3h0.1c1.4,0,2.6-0.4,3.7-1.3c0.4-0.3,0.6-0.6,0.8-0.8l-1.6-1.9
		C104.5,12.2,103.5,12.8,102.3,12.8z"/>
	<path class="st0" d="M137.4,10.2c-0.6-1.5-1.9-2.2-3.8-2.2h-3.2L130,7.9c-0.5-0.2-0.7-0.5-0.7-1.1c0-0.3,0.1-0.6,0.3-0.9
		c0.2-0.2,0.6-0.3,1.2-0.3h6.3V3.2h-6.3c-1.4,0-2.4,0.4-3,1.1c-0.6,0.8-0.9,1.6-0.9,2.5c0,1,0.3,1.8,1,2.5c0.8,0.7,1.6,1,2.5,1h3.4
		c1,0,1.5,0.4,1.5,1.2l-0.1,0.5c-0.2,0.5-0.6,0.7-1.1,0.7h-9.2V3.2h-2.4v1.2h0c-1.1-0.8-2.3-1.2-3.5-1.2c-1.2,0-2.4,0.4-3.4,1.1
		c-1.7,1.3-2.6,2.9-2.6,4.9c0,1.3,0.4,2.5,1.2,3.6c1.3,1.6,2.9,2.3,4.6,2.3h0.3c1.2,0,2.3-0.4,3.4-1.2v1.2h11.7c0.5,0,1-0.1,1.5-0.4
		c1.3-0.7,2-1.7,2-3.2C137.7,11.1,137.6,10.7,137.4,10.2z M122.5,9.3c0,0.6-0.2,1.3-0.7,2c-0.8,1-1.7,1.5-2.8,1.5h-0.1
		c-0.6,0-1.1-0.1-1.6-0.4c-1.3-0.8-1.9-1.8-1.9-3.2c0-0.7,0.2-1.4,0.7-2.1c0.8-1,1.8-1.5,2.9-1.5c0.6,0,1.2,0.2,1.8,0.5
		c1.2,0.8,1.8,1.8,1.8,3V9.3z"/>
	<path class="st0" d="M110,0l-0.3,0.1c-0.6,0.2-0.9,0.6-0.9,1.1v0.1l0,0.2c0.2,0.6,0.6,0.9,1.1,0.9h0.1l0.2,0
		c0.6-0.2,0.9-0.6,0.9-1.2l0-0.3C110.9,0.3,110.6,0,110,0z"/>
	<path class="st0" d="M75.1,15.1L75.1,15.1c1.6,0,2.9-0.5,4.1-1.6l-1.5-1.8c-0.8,0.7-1.6,1-2.5,1c-0.6,0-1.1-0.1-1.6-0.4
		c-0.9-0.5-1.5-1.1-1.8-2H81c0.1-0.3,0.1-0.7,0.1-1.2c0-1.4-0.5-2.7-1.4-3.8c-1.3-1.4-2.8-2.1-4.5-2.1c-1.5,0-2.8,0.5-3.9,1.4
		c-1.4,1.3-2.1,2.8-2.1,4.6c0,1.4,0.5,2.7,1.4,3.8C71.8,14.4,73.4,15.1,75.1,15.1z M72,7.4c0.8-1.2,1.8-1.8,3.1-1.8
		c0.6,0,1.2,0.1,1.8,0.4c0.8,0.5,1.3,1.2,1.6,2h-6.7L72,7.4z"/>
	<path class="st0" d="M52.8,29.9c-0.8,1.1-1.9,1.7-3.1,1.7c-0.6,0-1.2-0.2-1.8-0.5c-1.3-0.8-1.9-1.9-1.9-3.2c0-0.6,0.2-1.3,0.5-1.9
		c0.8-1.2,1.9-1.8,3.1-1.8c1.3,0,2.4,0.6,3.1,1.7c0,0,0,0,0.1,0l1.6-1.9c-1.3-1.5-2.9-2.2-4.7-2.2c-1.6,0-3,0.5-4.2,1.6
		c-1.4,1.3-2,2.8-2,4.6c0,1.4,0.4,2.6,1.3,3.8c1.3,1.6,3,2.4,4.9,2.4h0.1c1.4,0,2.7-0.5,3.8-1.4c0.4-0.3,0.7-0.6,0.9-0.8L52.8,29.9
		L52.8,29.9z"/>
	<path class="st0" d="M49.3,3.2c-1.5,0-2.8,0.5-3.9,1.4c-1.4,1.3-2.1,2.8-2.1,4.6c0,1.4,0.5,2.7,1.4,3.8c1.3,1.4,2.8,2.1,4.5,2.1h0
		c1.5,0,2.8-0.5,4-1.6l-1.5-1.8c-0.8,0.7-1.6,1-2.5,1c-0.6,0-1.1-0.1-1.6-0.4c-0.9-0.5-1.5-1.1-1.8-2h9.2c0.1-0.3,0.1-0.7,0.1-1.2
		c0-1.4-0.5-2.7-1.4-3.8C52.5,3.9,51,3.2,49.3,3.2z M45.9,8l0.2-0.6c0.8-1.2,1.8-1.8,3.1-1.8c0.6,0,1.2,0.1,1.8,0.4
		c0.8,0.5,1.3,1.2,1.6,2H45.9z"/>
	<path class="st0" d="M83.9,21.6c-1.5,0-2.8,0.5-4,1.5c-1.5,1.3-2.2,2.9-2.2,4.7c0,1.4,0.5,2.8,1.5,4c1.3,1.5,2.9,2.2,4.7,2.2h0.1
		c1.6,0,3-0.6,4.2-1.7l-1.6-1.9l0,0c-0.8,0.7-1.7,1.1-2.6,1.1c-0.6,0-1.1-0.1-1.7-0.4c-0.9-0.5-1.5-1.2-1.8-2.1H90
		c0.1-0.4,0.1-0.8,0.1-1.2c0-1.4-0.5-2.8-1.5-4C87.3,22.4,85.8,21.6,83.9,21.6z M80.4,26.6l0.2-0.6c0.8-1.3,1.9-1.9,3.2-1.9
		c0.6,0,1.2,0.2,1.8,0.5c0.8,0.5,1.4,1.2,1.7,2H80.4z"/>
	<path class="st0" d="M77.7,21.6c-2,0-3.6,0.5-4.9,1.4h0v-1.4h-2.5V34h2.5v-6.1c0-0.4,0.1-0.9,0.3-1.3c0.7-1.7,2.3-2.5,4.6-2.5V21.6
		z"/>
	<g>
		<polygon class="st0" points="38.3,27.8 43.4,21.6 40.3,21.6 39.9,22 36.7,25.9 33.2,21.6 33.2,21.6 33.2,21.6 30.1,21.6 
			30.5,22.2 35.1,27.8 35.1,27.8 30,34 30,34 33.2,34 36.7,29.7 40.3,34 43.5,34 		"/>
	</g>
	<g>
		<polygon class="st0" points="22.7,9.2 27.7,3.2 24.6,3.2 24.3,3.5 21.2,7.3 17.7,3.2 14.6,3.2 19.6,9.2 19.6,9.2 14.6,15.1 
			14.6,15.1 17.8,15.1 21.1,11 24.6,15.1 27.7,15.1 		"/>
	</g>
	<path class="st0" d="M40.6,5.5c-1.3-1.5-2.9-2.3-4.7-2.3c-1.3,0-2.4,0.4-3.5,1.2h-0.1V3.2H30v12.6l0,0v4.7h2.4v-1.8l0,0v-4.7h0.1
		c1.1,0.8,2.2,1.1,3.3,1.1h0.5c1.3,0,2.5-0.5,3.7-1.5c1.3-1.3,2-2.7,2-4.3V8.9C41.9,7.7,41.5,6.6,40.6,5.5z M39.5,9.2
		c0,0.7-0.2,1.4-0.7,2.1c-0.8,0.9-1.7,1.4-2.7,1.4h-0.3c-0.5,0-1-0.1-1.6-0.4c-1.2-0.8-1.9-1.8-1.9-3.2c0-0.7,0.2-1.4,0.7-2.1
		c0.8-1,1.8-1.5,2.9-1.5c0.7,0,1.4,0.2,2,0.7C39,7,39.5,7.9,39.5,9.2L39.5,9.2z"/>
</g>
</svg>
