<?xml version="1.0" encoding="utf-8"?>
<!-- Generator: Adobe Illustrator 23.0.4, SVG Export Plug-In . SVG Version: 6.00 Build 0)  -->
<svg version="1.1" id="Layer_1" xmlns="http://www.w3.org/2000/svg" xmlns:xlink="http://www.w3.org/1999/xlink" x="0px" y="0px"
	 viewBox="0 0 141.5 34" style="enable-background:new 0 0 141.5 34;" xml:space="preserve">
<style type="text/css">
	.st0{fill:#48C1F0;}
	.st1{fill:#8800BA;}
	.st2{fill:#FF6C0D;}
	.st3{fill:#A6CA3A;}
	.st4{fill:#E30083;}
	.st5{fill:#214386;}
	.st6{fill:#009335;}
	.st7{fill:#FFBF00;}
	.st8{fill:#FFFFFF;}
</style>
<title>logo_gpo-xcaret-w</title>
<polygon class="st0" points="0,0 17,17 11.9,22.1 0,10.2 "/>
<polygon class="st1" points="34,0 17,17 11.9,11.9 23.8,0 "/>
<polygon class="st2" points="34,34 17,17 22.1,11.9 34,23.8 "/>
<polygon class="st3" points="0,34 17,17 22.1,22.1 10.2,34 "/>
<polygon class="st4" points="34,0 17,17 22.1,22.1 34,10.2 "/>
<polygon class="st5" points="0,0 17,17 22.1,11.9 10.2,0 "/>
<polygon class="st6" points="0,34 17,17 11.9,11.9 0,23.8 "/>
<polygon class="st7" points="34,34 17,17 11.9,22.1 23.8,34 "/>
<path class="st8" d="M137.4,8.3c-2.3,0-4.1-1.9-4.1-4.2c0-2.3,1.9-4.1,4.2-4.1c2.3,0,4.1,1.9,4.1,4.2c0,0,0,0,0,0
	C141.5,6.5,139.6,8.3,137.4,8.3z M137.4,1.1c-1.2,0-2.3,0.7-2.7,1.8c-0.2,0.4-0.3,0.8-0.3,1.3c0,0.4,0.1,0.9,0.3,1.3
	c0.6,1.5,2.4,2.2,3.9,1.5c0.8-0.3,1.3-1,1.6-1.7c0.1-0.3,0.2-0.7,0.2-1.1c0.1-1.7-1.2-3-2.9-3.1C137.4,1.1,137.4,1.1,137.4,1.1z"/>
<path class="st8" d="M91,8.4c-1.8,0-3.3-1.5-3.3-3.3c0,0,0,0,0,0V0.2h1.2v4.9c0.1,1.2,1.1,2,2.2,2c1-0.1,1.9-0.9,2-2V0.2h1.2v4.9
	C94.3,6.9,92.8,8.3,91,8.4z"/>
<path class="st8" d="M68.5,8.1H70l-2-3c0.4-0.1,0.7-0.3,1-0.6c0.3-0.3,0.5-0.6,0.6-1V3.6V3.5c0-0.1,0-0.1,0-0.2c0,0,0,0,0-0.1
	c0,0,0-0.1,0-0.2v0c0-0.1,0-0.1,0-0.2l0,0l0,0V2.7c0-0.1,0-0.1,0-0.2V2.4c0,0,0-0.1,0-0.1V2.1c0,0,0-0.1,0-0.1l0,0
	c-0.1-0.4-0.2-0.8-0.5-1.2c-0.6-0.5-1.4-0.7-2.1-0.7h-2.5v8h1.2V5.3h1.1L68.5,8.1z M65.6,1.2h1.2c0.6,0,1.2,0.3,1.6,0.8
	c0.1,0.2,0.2,0.5,0.2,0.7c0,0.1,0,0.3,0,0.4l0,0c0,0,0,0.1,0,0.1c0,0,0,0.1,0,0.1v0.1v0.1l0,0c-0.1,0.1-0.2,0.2-0.2,0.2
	c0,0,0,0.1-0.1,0.1l0,0C68.2,3.9,68,4,67.8,4l0,0h-0.1c-0.2,0.1-0.4,0.1-0.6,0.1h-1.5v-3V1.2z"/>
<path class="st8" d="M116,3.5c0-0.1,0-0.1,0-0.2c0,0,0,0,0-0.1s0-0.1,0-0.2c0,0,0-0.1,0-0.1c0-0.1,0-0.1,0-0.2l0,0l0,0V2.7
	c0-0.1,0-0.1,0-0.2c0,0,0-0.1,0-0.1c0,0,0-0.1,0-0.1V2.1c0,0,0-0.1,0-0.1l0,0c-0.1-0.4-0.3-0.9-0.7-1.2c-0.6-0.5-1.4-0.7-2.1-0.7
	h-2.5v8h1.2V5.3h1.3c0.8,0.1,1.5-0.2,2.1-0.7c0.3-0.3,0.5-0.6,0.6-1V3.6L116,3.5z M111.9,1.2h1.2c0.6,0,1.2,0.3,1.6,0.8
	c0.1,0.2,0.2,0.5,0.2,0.7c0,0.1,0,0.3,0,0.4l0,0c0,0,0,0.1,0,0.1v0.1v0.1v0.1l0,0c-0.1,0.1-0.2,0.2-0.2,0.2c0,0,0,0.1-0.1,0.1l0,0
	c-0.1,0.1-0.3,0.2-0.5,0.2l0,0h-0.1c-0.2,0.1-0.4,0.1-0.6,0.1h-1.2v-3L111.9,1.2z"/>
<path class="st8" d="M47.3,4.2h-3.7v1.1h2.8c-0.6,1.5-2.3,2.3-3.9,1.7s-2.3-2.3-1.7-3.9c0.4-1.2,1.6-1.9,2.8-1.9
	c0.8,0,1.6,0.3,2.2,0.9l0,0l0,0h1.4c-0.2-0.3-0.4-0.6-0.6-0.8l0,0c-1.6-1.7-4.2-1.7-5.9-0.2c-1.7,1.6-1.7,4.2-0.2,5.9
	s4.2,1.7,5.9,0.2c0.8-0.8,1.3-1.9,1.3-3L47.3,4.2z"/>
<path class="st8" d="M92.5,17.4L92.5,17.4c-3.2-2.3-7.5-2.4-10.7-0.1c-2.5,1.7-4,4.5-3.9,7.6c0,2,0.7,4,1.8,5.6
	c1.7,2.3,4.3,3.6,7.2,3.6h0.5c1.9,0,3.7-0.7,5.2-1.8v1.8h3.7V15.6h-3.7V17.4z M92.5,24.9c-0.1,2.9-2.4,5.3-5.4,5.3h-0.2
	c-0.9,0-1.8-0.2-2.5-0.6c-1.8-1-2.9-2.9-2.9-4.9c0-1.1,0.4-2.3,1-3.2c1-1.4,2.7-2.3,4.5-2.3c1,0,2,0.3,2.8,0.8
	c1.7,1,2.7,2.8,2.7,4.7L92.5,24.9z"/>
<path class="st8" d="M73.6,27.8c-1,1.5-2.8,2.5-4.6,2.5c-0.9,0-1.9-0.2-2.7-0.7c-1.8-1-2.8-2.8-2.9-4.8c0-1,0.3-2,0.8-2.9
	c1-1.6,2.8-2.6,4.7-2.7c1.9,0,3.7,0.9,4.7,2.5h0.1l2.3-2.9c-1.7-2.1-4.3-3.3-7-3.3c-5.1,0-9.2,4-9.2,9.1c0,0,0,0.1,0,0.1
	c0,2,0.7,4,1.9,5.6c1.7,2.3,4.4,3.6,7.3,3.6H69c2.1,0,4.1-0.7,5.7-2.1c0.6-0.5,1-0.9,1.3-1.2L73.6,27.8L73.6,27.8z"/>
<path class="st8" d="M120,15.6c-5.1,0-9.2,4-9.2,9.1c0,0,0,0.1,0,0.1c0,2.2,0.8,4.3,2.2,5.9c1.7,2.1,4.3,3.3,7,3.2h0.1
	c2.3,0,4.5-0.9,6.2-2.5l-2.3-2.8l0,0c-1,1-2.5,1.6-3.9,1.6c-0.9,0-1.7-0.2-2.5-0.6c-1.3-0.6-2.3-1.8-2.7-3.1H129
	c0.1-0.6,0.2-1.2,0.2-1.8c0-2.2-0.8-4.3-2.2-5.9C125.3,16.7,122.7,15.5,120,15.6z M114.8,22.9l0.4-0.9c1-1.7,2.8-2.8,4.8-2.8
	c1,0,1.9,0.3,2.7,0.7c1.2,0.7,2,1.7,2.5,3L114.8,22.9z"/>
<path class="st8" d="M110.8,15.6c-2.6-0.1-5.2,0.6-7.3,2.1l0,0v-2.1h-3.7v18.4h3.7v-9c0-0.7,0.2-1.4,0.4-2c1.1-2.5,3.4-3.7,6.9-3.7
	V15.6z"/>
<polygon class="st8" points="52.1,24.7 59.8,15.6 55,15.6 54.5,16.1 49.8,21.9 44.5,15.6 44.5,15.6 44.4,15.6 39.8,15.6 40.6,16.4 
	47.3,24.7 47.3,24.8 39.7,33.9 39.7,33.9 44.5,33.9 49.7,27.6 55,33.9 59.8,33.9 "/>
<polygon class="st8" points="141.5,15.6 137.2,15.6 137.2,12.2 133.6,12.2 133.6,15.6 129.3,15.6 129.3,19.1 133.6,19.1 133.6,33.9 
	137.2,33.9 137.2,19.1 141.5,19.1 "/>
</svg>
