<?xml version="1.0" encoding="utf-8"?>
<!-- Generator: Adobe Illustrator 23.0.0, SVG Export Plug-In . SVG Version: 6.00 Build 0)  -->
<svg width="480" height="110" version="1.1" id="Layer_1" xmlns="http://www.w3.org/2000/svg" xmlns:xlink="http://www.w3.org/2000/xlink" viewBox="60 0 440 115" style="" xml:space="preserve">
<style type="text/css">
	.st0{fill:#FFFFFF;}
	.st1{fill:#FF0000;}
	.st2{fill:#FFEE00;}
	.st3{fill:#005FE8;}
	.st4{fill:#BECC30;}
	.st5{fill:#FF0099;}
	.st6{font-family:'Avenir-Light';}
	.st7{font-size:23.7845px;}


.eye{
  animation: eyeB 4s infinite;
}
  @keyframes eyeB {
    50% {
	ry: 1.2;
	animation-timing-function: ease-in;
    }
    55% {
    ry: 0;
    }
    60% {
    ry: 1.2;
    }    
    70% {
    ry: 0;
    }
    80% {
    ry: 1.2;
    }
    90% {
    ry: 0;
    }           
    100% {
    ry: 1.2;
	animation-timing-function: ease-out;
    }
  }
.blacktail{
	animation: pendulo 1s infinite ease-in-out;
	
}
.redtail{
	animation: pendulo 1s infinite ease-in-out;
	
	fill: #FF0000;
}
 @keyframes pendulo{
	0%,100%{
		transform-origin: 16%;
		transform: rotate(6deg);
	}
	50%{
		transform: rotate(-6deg);
	}
}

	
</style>
<g id="Layer_2_1_">
</g>
<g id="Layer_1_1_">
	<g id="Layer_2">
		<path class="st0" d="M123.7,25.6c-1.6,0.4-3.4,1.2-4.9,2.6c-1,1-1.6,2.1-2.1,3.2c-1,2.2-0.8,4.1-0.8,4.1s-0.4,4.3,3.9,5.2
			c0.1,0,0.3,0,0.3,0.1c0.1,0,0.4,0,0.6,0.1c1.5,0.3,3.2,0.1,4.5,0c-0.1,0-0.1,0-0.3-0.1s-0.3-0.3-0.4-0.4c-0.1-1-0.1-3.4-0.1-3.4
			s0-1.7,0.4-4.3c0.3-1.8,1-4.1,1.9-6.6c0.1-0.3,0.3-0.7,0.4-1c-0.3,0-0.7,0-1.2,0.1C125.2,25.3,124.5,25.4,123.7,25.6z"/>
	</g>
	<ellipse  class="eye" cx="122.5" cy="29" rx="1.6" ry="1.7"/>
	<path class="blacktail" d="M109,67.4c0.3,4.4,0.7,11.4,1.2,15.1c0,0,0.1,2.3,2.6,2.5h0.1c0,1.5,0.1,3,0.1,4.7c0,0,0.1,2.1,2.3,2.3c0,0,0.3,0,0.6,0
		c0,2.1-0.1,4-0.1,6.1c0,0-0.1,2.5,2.8,2.5c2.3,0,2.3-2.5,2.3-2.5c0-2.3,0.3-4.7,0.4-7c0.4-5.6,0.8-11.1,1.5-16.6
		c0.4-3.3,0.8-7.3,1.5-10.6c0.6-2.2-3.6-2.8-4.9-3c-2.1-0.3-4.3-0.1-6.3,0.4c-1.6,0.4-3.4,1.2-4.1,2.9C108.7,64.9,109,67.4,109,67.4
		z"/>
	<path class="redtail" d="M119.2,67.1c-1.2,13.8-1.8,30.8-1.8,30.8s0.1,1.1,1.1,1.1c1,0,1.1-1.1,1.1-1.1c0.4-12.7,1.8-25.2,2.8-31.8
		c-0.6-1.9-1.5-4.4-6.3-3.8s-5.5,5.4-5.5,5.4c0.3,6.1,1.1,14.2,1.1,14.7c0.1,0.8,0.7,1.1,1.2,1.1c0,0,0,0,0.1,0
		c-0.1-6.7-0.1-12.2-0.1-15.7c0.6,0,1.1,0,1.8,0c-0.4,10.7,0.1,21.3,0,21.7c0,0.4,0.4,1.1,1.1,1.1c0.1,0,0.1,0,0.3,0
		c0.3-9.5,1-18.3,1.2-23C117.4,67.5,119.2,67.1,119.2,67.1z"/>
	<g id="verde">
		<g>
			<path class="st0" d="M152.6,77.3l-2.9,8.9c-0.3,1-0.4,2.1-0.7,3h-0.3l-3.4-12h-9.4l-4,22.8h8.8l1.1-9.8c0.1-1,0.1-1.8,0.3-2.8
				h0.3c0,1,0.3,1.9,0.6,2.9l3.3,9.6h5.4l3.6-10.3c0.3-0.7,0.4-1.5,0.6-2.3h0.1l1.2,12.5h8.8l-4.1-22.8L152.6,77.3L152.6,77.3z"/>
			<polygon class="st0" points="183.1,91.2 193.6,91.2 193.6,86.3 183.1,86.3 183.1,82.8 194.5,82.8 194.5,77.3 172.8,77.3 
				172.8,100.1 194.9,100.1 194.9,94.6 183.1,94.6 			"/>
			<polygon class="st0" points="230.8,77.1 219.7,77.1 216,81.9 215.7,81.9 212,77.1 200.8,77.1 209.5,88.3 199.9,100.1 
				211.7,100.1 215.7,95.1 216,95.1 220.1,100.1 231.5,100.1 222.3,88.3 			"/>
			<rect x="236.9" y="77.1" class="st0" width="11.1" height="23"/>
			<path class="st0" d="M269.5,93.1c-2.3,0-4.3-1.9-4.3-4.3c0-2.3,1.9-4.3,4.3-4.3c1.1,0,2.1,0.4,2.9,1.1l6-4.8
				c-2.5-2.6-6-4.3-10-4.3c-7.3,0-13.2,5.4-13.2,12.1c0,6.6,5.9,12.1,13.2,12.1c4.1,0,7.7-1.6,10.2-4.3l-6-4.5
				C271.8,92.7,270.7,93.1,269.5,93.1z"/>
			<path class="st0" d="M91.1,60.6c-1.8-0.6-3.7-2.3-5.4-4.1L72.7,41.4l12.9-15.1c1.5-1.6,3.3-3.4,5.2-4c1.2-0.1,2.2-1.2,2.2-2.5
				c0-1.4-1.1-2.5-2.5-2.6H73c-1.4,0.1-2.5,1.2-2.5,2.6s1,2.3,2.2,2.5c0.6,0.1,0.4,0.7-0.4,1.5L65,32.3l-7.3-8.5
				c-0.8-0.8-1-1.4-0.4-1.5c1.2-0.1,2.2-1.2,2.2-2.5c0-1.4-1.1-2.5-2.6-2.8H39.4c-1.4,0.1-2.5,1.4-2.5,2.8c0,1.2,1,2.3,2.2,2.5
				c1.8,0.5,3.6,2.3,5.2,4l12.9,15.1L44.2,56.5c-1.6,1.8-3.6,3.6-5.4,4.1c-1.2,0.3-2.2,1.2-2.2,2.6s1.1,2.5,2.5,2.5h17.5
				c1.4,0,2.5-1.1,2.5-2.5s-1-2.3-2.2-2.5c-0.5-0.1-0.4-0.7,0.4-1.5l7.6-8.8l7.6,8.8c0.8,0.8,1,1.4,0.4,1.5c-1.1,0-2.2,1.1-2.2,2.5
				s1.1,2.5,2.5,2.5h17.5c1.4,0,2.5-1.1,2.5-2.5C93.3,61.9,92.3,60.9,91.1,60.6z"/>
			<path class="st0" d="M203.5,28.9c3.2,2.2,7.1,0.7,8.1-1.7c1.6-4,0.5-9.4-4-10c-3.6-0.5-6.3,0.7-9.5,4.4c-3.2,3.7-3.7,4.8-4.8,6.5
				c-0.3-4.7-1.9-8.4-2.8-9.2c-0.8-0.8-2.9-1.8-5.6-0.5c-2.9,1.2-7.4,3.3-7.4,3.3c-2.5,1.1-1.9,5.2,1,5.9c2.5,0.7,3.9,4.5,3.9,7.2
				c0,2.2,0.1,14.8,0.1,19.1c0,0.3,0,0.6-0.1,1.1c-0.4,3-2.8,5-4.7,5c-2.1,0-4.8-2.8-4.9-5.8v-0.1c0-0.3,0.3-17.3-0.4-23.5
				c-0.7-6.3-6.3-10.5-10.6-12c-5.1-1.8-17.5-3.6-23-1.6c-1.6,0.5-4.1,3.9,1.1,3.4c5.6-0.4,9.5,1,12.8,2.5s7.1,7.3,7.3,14.3v5
				c0.1,7.7,0.3,15.8-8.5,17.6c-7,0.7-8.4-6.6-8.4-8.2s-0.3-7,5.8-8.2c4.1-0.7,5.5,1.2,7.4,0c1.8-1.2,1.5-3.6-0.1-4.1
				c-1.5-0.3-4.5-0.4-4.7-0.4c-7.6,0.1-10.9,1.1-14.7,3.6c-1,0.5-1.6,1.2-2.3,1.9c-0.6,0.7-1.4,1.7-2.1,2.9l0,0c0,0,0,0.1-0.1,0.1
				c-0.1,0.3-0.3,0.6-0.3,0.7l0,0c-0.8,2.2-0.8,5.2-0.8,5.9v0.1c-0.1,0-0.1,0.1-0.3,0.1c-2.3,2.5-4.8,3.9-7.6,4.8
				c-0.6,0.1-1.2,0.4-1.9,0.6c-0.1,1.5-1.1,2.6-2.2,2.6c-1,0-1.9-0.8-2.2-2.1c-0.4,0-0.7,0-1.1,0c-0.3,1.2-1.1,2.1-2.2,2.1
				c-1.2,0-2.2-1.1-2.2-2.6c-0.6-0.3-1.1-0.6-1.7-0.8h-0.1c-0.7-0.4-1.4-1-1.9-1.5c-0.1-0.1-0.3-0.3-0.4-0.4c0,0,0,0-0.1-0.1
				c-0.1-0.1-0.4-0.4-0.6-0.5c-1.4-1.4-2.5-3.2-3.3-4.8c-0.1-0.3-0.3-0.6-0.4-0.8s-0.3-0.4-0.3-0.7l0,0c0-0.1-0.1-0.3-0.1-0.4
				c-0.1-0.1-0.1-0.4-0.3-0.5c0-0.1-0.1-0.3-0.1-0.4V48c-0.1-0.3-0.3-0.6-0.3-0.8c0-0.1-0.1-0.3-0.1-0.4c-0.1-0.3-0.1-0.6-0.3-0.8
				c0-0.1-0.1-0.3-0.1-0.4c0-0.1,0-0.3-0.1-0.3c0-0.1,0-0.1-0.1-0.3c0-0.1,0-0.1,0-0.3c-0.1-0.7-0.3-1.4-0.4-1.9
				c-0.3-1.8-0.4-3.6-0.3-5.2c0.8-7.4,6.3-12.5,9.9-14.6c3.6-2.1,7.3-2.9,12.8-2.5c5.2,0.4,2.9-3,1.1-3.4
				c-5.2-1.2-10.3-1.4-14.8-0.7c-0.3,0-0.4,0-0.6,0.1h-0.1c-1.7,0.3-3.3,1-4.8,1.5c-1,0.3-2.8,1.1-2.8,1.1
				c-8.5,4.1-14.3,11.8-14.3,22c0,13.6,10.3,24.9,23.5,26.3c0.6,0,1.2,0.1,1.8,0.1c0.4,0,0.7,0,1.1,0c0.3,0,0.6,0,0.8,0
				c0.7,0,1.2,0,1.9-0.1c0.7,0,1.2-0.1,1.8-0.3c0.1,0,0.3,0,0.4,0l0,0c0.6-0.1,1-0.1,1.5-0.3c0.1,0,0.3,0,0.3-0.1
				c0.7-0.1,1.2-0.4,1.9-0.5c0.4-0.1,0.7-0.3,1.1-0.4c0.3-0.1,0.7-0.3,1-0.4c0.3-0.1,0.6-0.3,0.8-0.4c0.4-0.1,0.7-0.4,1.1-0.6
				c0.7-0.4,1.4-0.8,2.1-1.2c0.4-0.3,0.7-0.4,1.1-0.7c0.3-0.1,0.4-0.4,0.7-0.6c0.8-0.7,1.5-1.4,2.3-2.1c0,0,0,0,0.1-0.1
				c0.3-0.3,0.7-0.6,1-1c0.1,0.3,0.4,0.7,0.6,1c0.7,1.1,2.1,3.4,3.9,4.5c4.8,3.2,10.7,2.9,14.7,2.2c4.8-0.8,7.7-5,8.9-6.6
				c0.6,4.8,2.1,5.2,3.6,5.2l3.6,0.1h15.3c1.5,0,5.2,0.1,9.5-0.6c-0.1-0.1-0.3-0.3-0.3-0.3c-1.1-1.9,3.2-7.4,3.2-7.4l0,0
				c-0.1-0.1-0.6-0.3-1.1-0.7l0,0c-1.6-1.2-4.4-3.8-4-7.8c0.1,0,0.3,0,0.6,0.1c1.9,0.1,3-0.8,4.1-2.2c0-0.4,0-0.7,0-1
				c0-4.5,0.6-9.6,2.5-12.9C199.3,28.9,201.5,27.6,203.5,28.9z"/>
			<path class="st0" d="M247.9,19.7c-5.6-4.5-18.3-4.3-24.5-0.7c-4.1,2.3-8.7,4.7-12.9,15.1c0.8-0.8,1.6-1.4,2.5-1.2l0,0
				c0.1,0,0.3,0,0.3,0.1c3,1.2,3.7,9.2,3.7,9.5c0.1,0,1,0,2.1,0.3c0.3,0,0.4,0.1,0.7,0.1c0.3,0.1,0.5,0.1,0.8,0.3l0,0
				c0.3,0.1,0.5,0.3,0.8,0.4c0.1,0,0.3,0.1,0.3,0.1l0,0c0.3,0.3,0.7,0.4,1,0.7c-0.3-1.7-0.3-3.3-0.3-4.7c-0.1-1.6-0.1-3.8,1.2-8.2
				c1.8-5.4,7.6-8,9.1-8.4s7.3-0.3,8.2,4c1,6.9-2.2,8.3-4.3,9.9c-1.4,1.2-5.4,2.3-9.4,3c-0.1,0.1-0.3,0.1-0.4,0.3
				c-2.6,1.6-1.8,5.6,0.4,6c9.6-0.8,19.8-3.2,22.7-6.9C253.5,35.2,256.8,27.6,247.9,19.7z"/>
			<path class="st0" d="M281.5,60.2c-1.6,0.4-4.5,0.4-4.5,0.4c-3.6,0-6.5-1.4-6.5-10.7c0,0,0-5.1,0-11.3c0-5.1,0.1-11.5,0.1-11.8
				c0.4,0,8.5,0,8.5,0c1.6,0,4-0.7,4-3.3c0-2.5-2.1-3.3-4-3.3h-8.5c0-0.4-0.1-4.3-0.1-4.3c0-2.6-0.5-4.7-2.3-4.7s-1.8,1.2-2.9,4.1
				c-1.2,3-4.8,4.1-9.4,4c-0.7,0-1.1,0.3-1.2,0.8c-0.1,0.5,0,1.1,0.7,1.5c2.1,1.4,2.3,3.3,2.9,5.2c0.7,2.5,0.7,6.7,0.5,11.3
				c0,1.7,0,11.1,0,11.1c0,9.6,2.5,18.4,13.3,18.4c0,0,5.2-0.6,9.4-2.6c2.6-1.2,3.7-2.2,3.6-3.6C285.1,59.7,283.6,59.7,281.5,60.2z"
				/>
			<path class="st0" d="M310.4,15.4c-1-2.8-2.1-3.7-3.7-4.1h-0.4c-1.8-0.1-3.2,0.5-4.8,2.9c-2.9,4.1-5.2,11.8-5.8,18.2
				s-0.4,24.8,0.8,36.3c0.1,1.1,0.4,1.9,0.7,2.3c0.1,0.3,0.4,0.4,0.5,0.4l0,0l0,0c0.3,0,0.4,0,0.7-0.3c0.4-0.3,1-1,1.4-2.1
				c4.4-10.9,9.6-28.5,11-34.7C312.1,28.2,311.9,20.1,310.4,15.4z"/>
		</g>
	</g>
	<g id="rojo">
		<g>
			<path class="st1" d="M295,76.6c-6.6,0-12.1,5.4-12.1,12.1c0,6.6,5.4,12,12.1,12c6.6,0,12-5.4,12-12S301.6,76.6,295,76.6z M295,92
				c-1.8,0-3.3-1.5-3.3-3.3c0-1.8,1.5-3.3,3.3-3.3c1.8,0,3.3,1.5,3.3,3.3C298.3,90.5,296.8,92,295,92z"/>
			<path class="st1" d="M116.7,27.9c-5.2,5-6.3,16.6-6.3,16.6s-0.7,5.4-0.6,13.9c0.6,0.3,1.1,0.6,1.6,0.8c0-0.1,0-0.1,0-0.3
				c0-1.7,1-2.9,2.2-2.9s2.2,1.2,2.2,2.9c0,0.3,0,0.6-0.1,0.8c0.4,0,0.7,0,1.1,0c0-0.3-0.1-0.6-0.1-0.8c0-1.7,1-2.9,2.2-2.9
				s2.2,1.2,2.2,2.9c0,0.1,0,0.1,0,0.3c0.7-0.1,1.2-0.3,1.9-0.6l0.1-0.5c0,0,0.7-5.9,1.8-10.3c1-4.4,1.6-7,1.6-7h-1c0,0-0.1,0-0.4,0
				l0,0l0,0c-1.4,0.1-3,0.3-4.5,0c-0.1,0-0.4,0-0.5-0.1c-0.1,0-0.3,0-0.3-0.1c-4.4-1.1-3.8-5.2-3.8-5.2s-0.1-1.9,0.8-4.1
				c0.4-1,1.1-2.1,2.1-3.2c1.4-1.4,3.3-2.2,4.9-2.6c0.8-0.3,1.5-0.3,2.1-0.4c0.6-0.1,1.5-0.1,1.8-0.1c0.3-0.7,0.7-1.4,1-1.9
				C128.5,23.1,121.9,22.8,116.7,27.9z"/>
		</g>
	</g>
	<g id="negro">
		<g>
			<path d="M113.5,62.4c1.1,0,1.9-1,2.3-2.2c0.1-0.3,0.1-0.6,0.1-1c0-1.7-1.1-3-2.3-3c-1.4,0-2.3,1.4-2.3,3c0,0.1,0,0.3,0,0.3
				C111.3,61.2,112.3,62.4,113.5,62.4z"/>
			<path d="M118.9,56.2c-1.4,0-2.3,1.4-2.3,3c0,0.3,0,0.5,0.1,0.8c0.3,1.2,1.2,2.2,2.3,2.2c1.2,0,2.3-1.2,2.3-2.8c0-0.1,0-0.1,0-0.3
				C121.4,57.6,120.3,56.2,118.9,56.2z"/>
			<path d="M230.1,56.2c0.4-0.7,0.8-1.5,1-2.3h-0.3c-0.1,0-0.3,0-0.3,0c-0.1,0-0.4,0-0.5-0.1c-0.1,0-0.4-0.1-0.6-0.1
				s-0.3-0.1-0.5-0.3c-2.3-1.4-2.6-4.3-4-6.3c-0.1-0.1-0.3-0.4-0.4-0.5s-0.3-0.4-0.4-0.6c-0.1-0.1-0.4-0.4-0.5-0.6
				c-0.1-0.1-0.4-0.4-0.5-0.6c-0.3-0.3-0.6-0.4-0.8-0.7c-0.3-0.1-0.5-0.4-0.8-0.5c-0.1,0-0.1-0.1-0.3-0.1c-0.3-0.1-0.5-0.3-0.8-0.4
				c-0.3-0.1-0.5-0.3-0.8-0.3c-0.3-0.1-0.4-0.1-0.7-0.1c-0.1,0-0.3-0.1-0.6-0.1c-0.8-0.1-1.1-0.1-1.2-0.1c0-0.3-0.7-8.1-3.7-9.3
				c-0.1,0-0.5-0.1-0.7-0.1c-0.8,0-1.8,0.5-2.6,1.2c-2.2,2.3-3.9,7-3.9,7s-2.1-0.7-4.5,0c-3.9,1-5.4,3.6-6.9,5.4
				c-1.1,1.4-2.2,2.2-4.1,1.9c-0.1,0-0.3,0-0.4,0c-0.3,4,2.2,7,3.9,8.2l0,0c0.6,0.4,1,0.7,1.1,0.7l0,0l0,0c0,0-4.3,5.5-3.2,7.4
				c0,0.1,0.1,0.3,0.3,0.3c0.8,0.7,3,0.7,5.5,0.4c-3.2,2.8-9.2,7.4-9.2,7.4s6.5,1.5,18.1-3.6c0.4,0,0.7,0,0.8,0
				c0.3,0,1.1,0.1,1.6,0.6c0.5,0.3,1.6,0,1.6,0c0.3,0.1,0.7,0.3,1,0.1c0.7-0.1,1.1-1,1.6-1.2c0.7-0.3,1.2-0.3,1.8-0.7
				c0.4-0.3,0.5-0.6,0.8-1c3.3,1.9,6.6,2.8,7.6,1.8c0.3-0.3,0.4-0.7,0.4-1.4c20.6,3,29.4-11.1,30-14.3
				C249.2,54.2,238.1,58.7,230.1,56.2z"/>
			<path d="M137.7,29.6c-0.6-2.8-1.4-4.5-3-6s-3.7-2.2-5.2-2.3c-1.5-0.1-3.7,0-6.7,0.8c-3,1-5.4,2.6-7,4s-3.9,3.6-6.1,10.7
				c0,0-4.4-0.4-7,1.7c-2.6,2.1-2.2,5.2-2.2,6.1c0,0.3,0.1,0.8,0.4,1.8c0.4,1.9,1.2,3.7,2.2,5.4c1,1.7,2.2,2.9,3.6,4.3
				c0.1,0.1,0.4,0.4,0.6,0.5c0.1,0.1,0.3,0.3,0.4,0.4c-0.1-0.1-0.3-0.3-0.4-0.4c0,0,0,0,0.1,0.1c0.1,0.1,0.3,0.3,0.4,0.4
				c0.7,0.6,1.2,1.1,1.9,1.5c0,0,0.1,0,0.1,0.1c0-8.7,0.4-13.5,0.4-13.5s1.1-11.8,6.5-16.9s11.6-4.8,11.6-4.8
				c-0.4,0.7-0.7,1.4-1,2.1l-0.1,0.1c-0.1,0.4-0.3,0.5-0.4,0.8c-1.1,2.5-1.7,4.8-1.9,6.6c-0.6,2.5-0.6,4.1-0.6,4.1s0,0.7,0,1.5
				c0,0.1,0,0.4,0,0.5l0,0c0,0,0,0,0,0.1s0,0.3,0,0.4v0.1c0,0.1,0.1,0.3,0.1,0.4c0,0.1,0.1,0.3,0.3,0.3c0,0,0,0.1,0.1,0.1l0,0
				c0.1,0,0.1,0.1,0.3,0.1c0.3,0,0.4,0,0.4,0l1-0.1c0,0-0.7,2.8-1.7,7.1c-1,4.4-1.8,10.4-1.8,10.4l-0.1,0.6c2.9-0.8,5.4-2.3,7.8-4.7
				c0.1-0.1,0.1-0.1,0.3-0.3c-0.1,0.1-0.1,0.1-0.3,0.3c0.1-0.1,0.1-0.1,0.3-0.3v-0.1c0-0.7,0.1-3.7,1-6.1c0.1-0.3,0.3-0.5,0.3-0.8
				c0,0,0-0.1,0.1-0.1c0.5-1.1,1.2-2.1,2.1-2.9c0.5-0.7,1-1,1-1s-0.1-2.9-2.9-4.5c0,0,0.7-0.5,1.6-2.3c0,0-3.7-1.4-5.9-2.6
				c0.3,0,5.5,0,9.2,2.8C137.4,36.3,138.3,32.3,137.7,29.6z M102.4,45c-0.1-0.6-0.1-1-0.3-1.5c0-0.8,0.1-1.5,0.4-2.2l0,0l0,0
				c0-0.1,0.1-0.3,0.1-0.4c0.1-0.1,0.3-0.4,0.4-0.5c-0.1,0.1-0.3,0.3-0.4,0.5c0,0.1-0.1,0.1-0.1,0.3c0-0.1,0.1-0.1,0.1-0.3
				c0.1-0.1,0.3-0.4,0.4-0.5l0.1-0.1l0.1-0.1c-0.1,0-0.1,0.1-0.1,0.1c0.4-0.4,1.1-0.8,1.7-1.1l0,0l0,0l0,0c0.3-0.1,0.4-0.1,0.7-0.3
				h0.1l0,0c0.3,0,0.4-0.1,0.7-0.1l0,0l0,0l0,0l0,0c0.3,0,0.7-0.1,1-0.1l0,0c0,0,0,0,0.1,0c0,0,0,0-0.1,0c0.6-0.1,1.1-0.1,1.4-0.1
				h0.1l0,0h0.1l0,0c-0.4,1.2-0.7,3-1,5c-0.1,1.1-0.3,1.8-0.3,2.9v0.3c-0.3,2.8-0.1,4.7-0.3,6.3c0-1.4,0-3,0.1-5.4
				c-0.1,2.3-0.1,3.8-0.1,5.4c0,1,0,1.7,0,1.7l0,0c-1.9-2.2-3.6-4.5-4.1-5.9c-0.1-0.4-0.3-0.7-0.3-0.8l0,0l0,0l0,0
				c0,0,0-0.1-0.1-0.1c0,0,0,0.1,0.1,0.1c-0.1-0.3-0.6-1.4-0.8-2.6L102.4,45z M129.8,23.8L129.8,23.8L129.8,23.8z M130.2,48.9
				c0.1-0.7,0.4-1.4,0.7-1.9C130.4,47.6,130.3,48.3,130.2,48.9z M128.6,40.7c1.4-0.4,2.5-1.1,2.5-1.1l0,0l0,0
				c0.3,0.1,0.6,0.3,0.7,0.4c0.1,0,0.1,0.1,0.1,0.1s0.1,0,0.1,0.1c0,0-0.1,0-0.1-0.1c1.5,1.1,1.6,2.8,1.6,2.8c-1,1-1.8,2.2-2.2,2.9
				l0,0l0,0l0,0c-0.1,0.1-0.1,0.3-0.1,0.3c-1.8,2.8-1.6,7.6-1.6,7.6c-1.5,1.7-4.1,2.9-4.1,2.9l0,0l0,0l0,0c0.1-1.2,0.7-4.1,1.2-6.9
				c-0.1,0.8-0.3,1.7-0.4,2.3c0.1-0.8,0.3-1.5,0.4-2.3c0-0.3,0.1-0.7,0.1-1c0-0.1,0-0.1,0-0.3c0-0.3,0.1-0.5,0.1-0.8
				c0,0.3-0.1,0.6-0.1,0.8c0.1-0.7,0.3-1.2,0.4-1.8l0,0v-0.1l0,0l0,0l0,0C128.1,43,128.6,40.7,128.6,40.7c1.4-0.4,2.5-1.1,2.5-1.1
				l0,0C131.1,39.6,130,40.4,128.6,40.7c0,0-0.6,2.3-1.2,5.6l0,0l0,0C128.1,43,128.6,40.7,128.6,40.7z M135.8,33L135.8,33
				c-4.1-1.8-8.1-1.5-8.9-1.5c-0.1,0-0.1,0-0.1,0l0,0l0,0l0,0c0.1-0.7,0.4-1.4,0.6-2.1c0.6-1.7,1.1-3,1.6-4.1c0,0.1-0.1,0.3-0.1,0.4
				c0-0.1,0.1-0.3,0.1-0.4c0.1-0.3,0.3-0.5,0.4-0.8l0,0c0,0,0,0,0-0.1c0.1-0.3,0.3-0.4,0.3-0.5c0.1-0.3,0.3-0.5,0.3-0.5
				c0.4,0.1,0.8,0.3,1.1,0.4c-0.4-0.1-0.7-0.3-1.1-0.4c0.4,0.1,0.8,0.3,1.1,0.4l0,0c0.1,0,0.1,0.1,0.3,0.1s0.1,0,0.3,0.1l0,0
				c1.6,0.8,2.8,2.3,3.3,3.8l0,0l0,0l0,0c0,0,0,0,0,0.1c0.1,0.4,0.3,0.7,0.3,1.1l0,0c0,0.1,0,0.3,0.1,0.4c0,0.3,0.1,0.5,0.1,0.7
				s0,0.3,0,0.4c0,0.1,0,0.3,0,0.4c0,0.1,0,0.1,0,0.3l0,0v0.1v-0.1C135.9,32.2,135.8,33,135.8,33z"/>
		</g>
	</g>
	<g id="color1">
		<g>
			<path class="st2" d="M131.5,23.9L131.5,23.9c-0.1,0-0.1-0.1-0.3-0.1s-0.1-0.1-0.3-0.1l0,0c-0.4-0.1-0.7-0.3-1.1-0.4
				c0,0-0.4,0.8-1,1.9c-0.6,1.1-1.1,2.5-1.7,4.1c-0.3,0.7-0.4,1.4-0.6,2.1c0,0,0,0,0.1,0c0.8,0,4.8-0.3,8.8,1.5c0,0,0.3-2.6-0.7-5.2
				C134.3,26.1,133.2,24.8,131.5,23.9z"/>
			<path class="st2" d="M131.3,39.3c0,0-1.1,0.8-2.6,1.1c0,0-0.7,2.3-1.4,5.8c0,0,0,0,0,0.1v0.1l0,0c1.5-0.3,2.9-0.6,4.4-0.8l0,0
				c0.4-0.5,1.4-1.9,2.3-2.9C134,42.8,133.9,40.4,131.3,39.3z"/>
			<path class="st2" d="M106.9,38.4c-1.7,0.3-3.6,1-4.4,2.3c-0.1,0.1-0.1,0.3-0.3,0.4c-0.3,0.7-0.4,1.5-0.4,2.3
				c0,0.5,0.1,1.1,0.3,1.6c2.1,0.6,4.3,1.1,6.5,1.4c0.1-1.1,0.3-2.2,0.4-3.3c0.3-2.1,0.7-3.8,1.1-5.2
				C109.9,38.1,108.6,38,106.9,38.4z"/>
		</g>
		<g>
			<path class="st3" d="M102.9,47.6L102.9,47.6c0,0.1,0.1,0.4,0.4,0.8c0.7,1.4,2.2,4.3,4.5,6.6c0,0,0-0.7,0-1.7
				c0.1-1.7,0.3-4.3,0.6-7c-2.2-0.4-4.3-0.8-6.5-1.4C102.2,46.2,102.8,47.3,102.9,47.6z"/>
			<path class="st3" d="M131.7,45.7c-1.4,0.4-2.9,0.7-4.4,0.8c-0.1,0.6-0.3,1.2-0.4,1.8c-0.7,3.2-1.4,7-1.6,8.4c0,0,2.8-1.2,4.4-3
				c0,0-0.1-5,1.8-7.8C131.5,45.9,131.5,45.8,131.7,45.7z"/>
		</g>
		<g>
			<path class="st4" d="M203.5,67.5c-0.7-0.4-1.2-0.1-1.6-0.6c-0.6-0.6-0.1-0.8-0.4-1.1c-0.1-0.1-0.5,0.1-0.7,0
				c-2.5,2.8-3.3,3.4-5.4,4.9c0,0,2.5,0.3,9.6-2.3C203.3,68.2,204.1,67.9,203.5,67.5z"/>
			<path class="st4" d="M247.5,57.2l-0.5,0.1c-1.1,0.4-2.2,0.7-3.3,1c-0.1,0-0.3,0-0.4,0.1c-3.6,0.8-6.7,1.1-10,0.5
				c-0.7-0.1-1.4-0.3-2.2-0.5c-0.3-0.1-0.5-0.1-0.8-0.3c-0.3-0.1-0.5-0.1-0.8-0.3c-0.1,0.1-0.3,0.3-0.5,0.4l0,0
				c-0.3,0.3-0.7,0.6-1,0.7c-0.1,0.1-0.4,0.1-0.5,0.3c-0.1,0-0.3,0.1-0.4,0.1c-1.9,1-3.7,1.2-3.7,1.2l0,0l0,0c0,0.1,0.1,0.4,0.4,1
				v0.1c0,0.1,0.1,0.3,0.1,0.3c0,0.1,0.1,0.3,0.1,0.3c0.1,0.4,0.3,1,0.4,1.5l0,0c0.1,0.4,0.3,0.8,0.3,1.2c0.4,0,0.7,0.1,1.1,0.1
				c7.4,0.7,14.6-1.4,17.6-3c1.5-0.8,2.8-1.7,3.9-2.3c0.3-0.1,0.5-0.4,0.8-0.5l0,0c0.7-0.6,1.2-1,1.8-1.5c0.7-0.7,1.2-1.2,1.6-1.9
				C249.9,56.5,248.7,56.9,247.5,57.2z"/>
		</g>
		<path class="st2" d="M210.5,51.6L210.5,51.6c0-0.1,0-0.1,0-0.3c0,0.1-0.1,0.4-0.1,0.6c-1.1,3.3-3.7,4.1-4.4,8
			c-0.3,1.5,1.2,2.6,3,2.9c1.8,0.1,3.6-0.4,3.7-1.9C212.9,56.7,210.6,55.1,210.5,51.6z"/>
	</g>
	<g id="rosa">
		<g>
			<path class="st5" d="M211,46.8c0.3-0.4,1.6-1.8,3.9-3c0,0-0.4-7.2-2.5-7.6c-2.2,0-4.4,6.7-4.4,6.7C210,44.6,211,46.2,211,46.8z"
				/>
			<path class="st5" d="M210.5,51.6c0.1,3.6,2.5,5.1,2.2,9.1c-0.1,1.7-1.9,2.2-3.7,1.9c-1.8-0.3-3.3-1.2-3-2.9
				c0.7-3.8,3.2-4.7,4.4-8c-2.3,3.7-7.3,5.9-7.6,9.3c-0.4,5.5,4.8,5.5,6.5,6.2c2.5,0.1,6.7,0.1,5.8-5.4
				C214.5,58.3,211.4,55.7,210.5,51.6z"/>
			<path class="st5" d="M217.9,61.5L217.9,61.5c0.1,0.7,0.4,1.2,0.4,1.8s-0.3,1.1-0.4,1.8c0,0.1-0.1,0.3-0.1,0.4
				c2.5,1.4,4.5,1.9,5,1.7c0.8-0.6-1.5-5.8-1.5-5.8S219.7,61.6,217.9,61.5z"/>
			<path class="st5" d="M194.6,63.2c0.3,0.6,2.5,0.7,5.2,0c0-0.1,0-0.3,0-0.6c0-0.7-0.1-1.2,0-1.8c0.1-0.7,0.5-1.1,0.8-1.5v-0.1
				c-1.8-0.4-3-1-3-1S194.2,62.4,194.6,63.2z"/>
			<path class="st5" d="M206.6,43.6c-8.9-2.2-8.7,6.9-14.4,6.7c0.7,5.2,8.8,7,10.3,7c0.3,0,0.5,0,0.7,0c0.4-0.4,0.4-1.2,1.1-1.5
				c0.7-0.1,1.1-1.1,1.8-1.4c0.5-0.3,1.1-0.3,1.6-0.7c0.4-0.3,0.5-1.1,1.2-1.4c0.6-0.3,1.5-1.1,1.8-3
				C210.6,48.7,209.2,44.3,206.6,43.6z"/>
			<path class="st5" d="M216.2,45c-2.8,0-5.2,3.8-5.5,4.5c-0.3,1.9,0.4,3,1,3.3c0.6,0.4,0.6,1.2,0.8,1.7c0.4,0.5,1,0.5,1.4,1
				c0.5,0.4,0.7,1.4,1.4,1.8c0.5,0.3,0.4,1.2,0.7,1.7c0.3,0,0.4,0.1,0.7,0.3c1.5,0.4,9.8,0.8,11.7-4.1
				C222.8,53.8,225.5,45.1,216.2,45z"/>
		</g>
	</g>
	<path class="st0" d="M79.6,87.2c-1.4,0-2.6,0.4-3.7,1.1v-7.4H73v19.4h2.9v-1.1c1.1,0.7,2.3,1.1,3.6,1.1h0.1c1.4,0,2.8-0.4,3.8-1.4
		c1.7-1.2,2.6-3,2.6-5.1v-0.3c0-1.4-0.6-2.8-1.4-3.9C83.4,88.1,81.5,87.2,79.6,87.2z M83,93.8c0,0.7-0.3,1.4-0.7,1.9
		c-0.7,1-1.8,1.5-2.9,1.5c-0.7,0-1.2-0.1-1.8-0.4c-1.2-0.7-1.9-1.8-1.9-3.2c0-1.9,1.7-3.6,3.6-3.7c0.8,0,1.7,0.3,2.2,0.8
		c0.8,0.7,1.4,1.6,1.4,2.8C82.9,93.5,83,93.8,83,93.8z"/>
	<path class="st0" d="M98.1,92.9c0,0.6-0.1,1.2-0.3,1.8c-0.3,1.5-1.7,2.5-3.2,2.5c-0.7,0-1.5-0.1-2.1-0.6c-1.1-1.1-1.8-2.6-1.7-4.1
		v-5.4h-2.9v5.4c0,1.2,0.3,2.5,0.7,3.6c0.8,2.5,3.3,4.3,5.9,4.1c1.2,0,2.5-0.3,3.6-1v2.1c0,0.4-0.1,1-0.3,1.4
		c-0.4,1.4-1.8,2.3-3.2,2.2h-0.3v2.9h0.3c1.9,0,3.6-0.7,4.8-2.2c1-1.2,1.5-2.8,1.5-4.3V87.2h-3V92.9z"/>
</g>
<g>
	<line x1="333.6" y1="14.2" x2="333.6" y2="103.8"/>
	<rect x="332.6" y="14.2" class="st0" width="2" height="89.6"/>
</g>
<g>
	<g>
		<path class="st0" d="M359.7,48.8l1.8-2.1c1.7,1.8,4.1,3,6.6,3c3.2,0,5-1.6,5-3.9c0-2.5-1.7-3.2-4-4.2l-3.5-1.5
			c-2.2-1-4.9-2.7-4.9-6.2c0-3.7,3.2-6.4,7.6-6.4c2.9,0,5.4,1.2,7.1,3l-1.6,2c-1.5-1.4-3.2-2.3-5.5-2.3c-2.7,0-4.5,1.4-4.5,3.5
			c0,2.3,2.1,3.2,4,4l3.4,1.5c2.8,1.2,5,2.9,5,6.4c0,3.8-3.1,6.8-8.2,6.8C364.7,52.4,361.8,51,359.7,48.8z"/>
		<path class="st0" d="M380.2,28.5c0-1.2,0.9-2,2.1-2s2.1,0.8,2.1,2c0,1.1-0.9,1.9-2.1,1.9S380.2,29.6,380.2,28.5z M380.8,34.1h3
			v17.8h-3V34.1z"/>
		<path class="st0" d="M390.3,46.4v-9.9h-2.7v-2.3l2.8-0.2l0.4-5h2.5v5h4.8v2.5h-4.8v9.9c0,2.2,0.7,3.4,2.8,3.4c0.6,0,1.5-0.2,2-0.5
			l0.6,2.3c-1,0.3-2.2,0.7-3.3,0.7C391.6,52.4,390.3,50,390.3,46.4z"/>
		<path class="st0" d="M401.6,28.5c0-1.2,0.9-2,2.1-2s2.1,0.8,2.1,2c0,1.1-0.9,1.9-2.1,1.9S401.6,29.6,401.6,28.5z M402.2,34.1h3
			v17.8h-3V34.1z"/>
		<path class="st0" d="M409.9,43.1c0-6,3.9-9.4,8.3-9.4c4.4,0,8.3,3.4,8.3,9.4c0,5.9-3.9,9.3-8.3,9.3
			C413.8,52.4,409.9,49,409.9,43.1z M423.3,43.1c0-4.1-2.1-6.9-5.1-6.9c-3.1,0-5.1,2.8-5.1,6.9s2.1,6.8,5.1,6.8
			C421.2,49.9,423.3,47.1,423.3,43.1z"/>
		<path class="st0" d="M437.2,39.8c0-7.7,4.2-12.4,10.3-12.4c6,0,10.3,4.7,10.3,12.4c0,7.7-4.2,12.6-10.3,12.6
			C441.4,52.4,437.2,47.5,437.2,39.8z M454.6,39.8c0-6-2.8-9.7-7.1-9.7c-4.3,0-7.1,3.7-7.1,9.7c0,6,2.8,9.9,7.1,9.9
			C451.8,49.7,454.6,45.8,454.6,39.8z"/>
		<path class="st0" d="M460.7,34.3l2.6-0.2h6.7v2.5h-9.2V34.3z M463.2,31.3c0-3.6,1.6-5.9,5.2-5.9c1.1,0,2.2,0.3,3,0.6l-0.6,2.3
			c-0.7-0.3-1.4-0.5-2-0.5c-1.7,0-2.5,1.2-2.5,3.5v20.6h-3V31.3z"/>
		<path class="st0" d="M472.8,28.5c0-1.2,0.9-2,2.1-2s2.1,0.8,2.1,2c0,1.1-0.9,1.9-2.1,1.9S472.8,29.6,472.8,28.5z M473.4,34.1h3
			v17.8h-3V34.1z"/>
		<path class="st0" d="M481.1,43.1c0-6,4-9.4,8.6-9.4c2.3,0,4,1,5.2,2.1l-1.5,2c-1-0.9-2.1-1.6-3.5-1.6c-3.2,0-5.6,2.8-5.6,6.9
			s2.2,6.8,5.5,6.8c1.6,0,3.1-0.8,4.2-1.8l1.3,2c-1.6,1.4-3.6,2.3-5.8,2.3C484.7,52.4,481.1,49,481.1,43.1z"/>
		<path class="st0" d="M498.6,28.5c0-1.2,0.9-2,2.1-2s2.1,0.8,2.1,2c0,1.1-0.9,1.9-2.1,1.9S498.6,29.6,498.6,28.5z M499.1,34.1h3
			v17.8h-3V34.1z"/>
		<path class="st0" d="M507.1,47.3c0-3.9,3.4-5.8,11-6.7c0-2.3-0.8-4.5-3.7-4.5c-2.1,0-3.9,1-5.3,1.9l-1.2-2.1
			c1.6-1.1,4.1-2.3,7-2.3c4.4,0,6.2,2.9,6.2,7.3v10.9h-2.5l-0.3-2.1h-0.1c-1.7,1.4-3.7,2.6-5.9,2.6
			C509.3,52.4,507.1,50.5,507.1,47.3z M518,47.6v-5c-6,0.7-8,2.2-8,4.5c0,2,1.4,2.9,3.1,2.9C514.9,50,516.3,49.1,518,47.6z"/>
		<path class="st0" d="M526.7,48.4V25.8h3v22.8c0,0.9,0.4,1.3,0.8,1.3c0.2,0,0.3,0,0.7-0.1l0.4,2.3c-0.4,0.2-0.9,0.3-1.7,0.3
			C527.6,52.4,526.7,50.9,526.7,48.4z"/>
	</g>
</g>
<g>
	<g>
		<path class="st0" d="M428.5,96.6c-4.5,0-8.1-3.6-8.1-8.1c0-4.5,3.6-8.1,8.1-8.1c4.5,0,8.1,3.6,8.1,8.1
			C436.6,93,432.9,96.6,428.5,96.6z M428.5,82.5c-2.4,0-4.3,1.3-5.3,3.5c-0.3,0.8-0.5,1.6-0.5,2.5c0,0.9,0.2,1.7,0.5,2.5
			c1,2.2,2.9,3.5,5.3,3.5c2.6,0,4.5-1.5,5.4-3.8c0.3-0.7,0.4-1.4,0.4-2.1C434.3,85.3,431.9,82.5,428.5,82.5z"/>
		<path class="st0" d="M397.4,96.7c-3.5,0-6.3-2.8-6.3-6.3v-9.6h2.3v9.6c0,2.2,1.8,4.1,4.1,4.1s4.1-1.8,4.1-4.1v-9.6h2.3v9.6
			C403.7,93.9,400.9,96.7,397.4,96.7z"/>
		<path class="st0" d="M385.4,96.3h2.8l-3.8-5.8c0.7-0.2,1.4-0.5,2-1.1c0.5-0.5,0.9-1.2,1.1-1.9c0,0,0-0.1,0-0.1
			c0-0.1,0-0.1,0.1-0.2c0-0.1,0.1-0.3,0.1-0.4c0,0,0-0.1,0-0.1c0-0.1,0-0.2,0-0.3c0-0.1,0-0.1,0-0.2c0-0.1,0-0.2,0-0.3
			c0,0,0-0.1,0-0.1c0,0,0,0,0,0c0,0,0,0,0,0c0,0,0-0.1,0-0.1c0-0.1,0-0.2,0-0.3c0-0.1,0-0.1,0-0.2c0-0.1,0-0.2,0-0.2
			c0-0.1,0-0.2-0.1-0.3c0-0.1,0-0.2,0-0.2h0c-0.2-0.9-0.6-1.7-1.3-2.3c-1.1-1.1-2.7-1.3-4.1-1.3h-4.8v3.6v6.4v5.5h2.3v-5.5h2.1
			L385.4,96.3z M379.8,82.8h2.4c1.3,0,2.6,0.5,3.1,1.5c0.2,0.4,0.3,0.8,0.3,1.4c0,0.3,0,0.6-0.1,0.8c0,0,0,0.1,0,0.1
			c0,0.1,0,0.2-0.1,0.2c0,0,0,0.1-0.1,0.1c0,0,0,0.1-0.1,0.1c0,0.1-0.1,0.1-0.1,0.2c0,0,0,0,0,0.1c-0.1,0.2-0.3,0.4-0.5,0.5
			c-0.1,0-0.1,0.1-0.2,0.1c0,0,0,0-0.1,0c-0.3,0.2-0.6,0.3-0.9,0.4c0,0,0,0,0,0c0,0-0.1,0-0.1,0c-0.4,0.1-0.8,0.2-1.2,0.2h-2.4v-4.3
			V82.8z"/>
		<path class="st0" d="M418,87.2c0-0.1,0.1-0.3,0.1-0.4c0,0,0-0.1,0-0.1c0-0.1,0-0.2,0-0.3c0-0.1,0-0.1,0-0.2c0-0.1,0-0.2,0-0.3
			c0,0,0-0.1,0-0.1c0,0,0,0,0,0c0,0,0,0,0,0c0,0,0-0.1,0-0.1c0-0.1,0-0.2,0-0.3c0-0.1,0-0.1,0-0.2c0-0.1,0-0.2,0-0.2
			c0-0.1,0-0.2-0.1-0.3c0-0.1,0-0.2,0-0.2h0c-0.2-0.9-0.6-1.7-1.3-2.3c-1.1-1.1-2.7-1.3-4.1-1.3h-4.8v3.6v6.4v5.5h2.3v-5.5h2.5
			c1.5,0,3-0.2,4.1-1.3c0.5-0.5,0.9-1.2,1.1-1.9c0,0,0-0.1,0-0.1C418,87.4,418,87.3,418,87.2z M410.1,82.8h2.4
			c1.3,0,2.6,0.5,3.1,1.5c0.2,0.4,0.3,0.8,0.3,1.4c0,0.3,0,0.6-0.1,0.8c0,0,0,0.1,0,0.1c0,0.1,0,0.2-0.1,0.2c0,0,0,0.1-0.1,0.1
			c0,0,0,0.1-0.1,0.1c0,0.1-0.1,0.1-0.1,0.2c0,0,0,0,0,0.1c-0.1,0.2-0.3,0.4-0.5,0.5c-0.1,0-0.1,0.1-0.2,0.1c0,0,0,0-0.1,0
			c-0.3,0.2-0.6,0.3-0.9,0.4c0,0,0,0,0,0c0,0-0.1,0-0.1,0c-0.4,0.1-0.8,0.2-1.2,0.2h-2.4v-4.3V82.8z"/>
		<path class="st0" d="M373.4,88.5L373.4,88.5h-7.2v2.1h5.4c-0.9,2.2-3,3.7-5.4,3.7c-3.2,0-5.8-2.6-5.8-5.8s2.6-5.8,5.8-5.8
			c1.6,0,3.1,0.6,4.2,1.8v0c0,0,0,0,0,0h2.8c-0.3-0.6-0.7-1.1-1.2-1.6v0c-1.5-1.6-3.6-2.5-5.9-2.5c-4.5,0-8.1,3.6-8.1,8.1
			s3.6,8.1,8.1,8.1c4.5,0,8.1-3.6,8.1-8.1H373.4z"/>
	</g>
	<g>
		<path class="st0" d="M487.5,82.3L487.5,82.3c-1.5-1-3-1.5-4.7-1.5c-1.6,0-3.1,0.5-4.4,1.4c-2.2,1.7-3.3,3.8-3.3,6.4
			c0,1.7,0.5,3.2,1.6,4.7c1.7,2,3.7,3.1,6,3.1h0.4c1.5,0,3-0.5,4.4-1.5v1.5h3.1V80.7h-3.1V82.3z M487.5,88.7c0,0.8-0.3,1.7-0.9,2.6
			c-1,1.3-2.3,2-3.7,2h-0.2c-0.7,0-1.4-0.2-2.1-0.5c-1.7-1-2.5-2.4-2.5-4.1c0-0.9,0.3-1.8,0.9-2.7c1-1.3,2.3-2,3.8-2
			c0.8,0,1.6,0.2,2.4,0.7c1.5,1,2.3,2.4,2.3,4V88.7z"/>
		<path class="st0" d="M471.6,91.1c-1,1.4-2.4,2.1-3.9,2.1c-0.8,0-1.5-0.2-2.3-0.6c-1.6-1-2.4-2.4-2.4-4.1c0-0.8,0.2-1.6,0.7-2.4
			c1.1-1.5,2.4-2.2,3.9-2.2c1.7,0,3,0.7,3.9,2.1c0,0,0,0,0.1,0l2-2.4c-1.6-1.8-3.6-2.8-5.9-2.8c-2,0-3.7,0.7-5.3,2
			c-1.7,1.6-2.6,3.6-2.6,5.8c0,1.7,0.5,3.3,1.6,4.8c1.7,2,3.7,3,6.2,3h0.1c1.8,0,3.4-0.6,4.8-1.7c0.5-0.4,0.8-0.8,1.1-1.1
			L471.6,91.1L471.6,91.1z"/>
		<path class="st0" d="M510.9,80.7c-1.9,0-3.6,0.6-5.1,1.8c-1.8,1.7-2.8,3.6-2.8,6c0,1.8,0.6,3.5,1.8,5c1.6,1.8,3.6,2.8,5.9,2.8h0.1
			c2,0,3.7-0.7,5.2-2.1l-2-2.4l0,0c-1,0.9-2.1,1.4-3.3,1.4c-0.7,0-1.4-0.2-2.1-0.5c-1.1-0.6-1.9-1.5-2.3-2.6h12
			c0.1-0.5,0.1-1,0.2-1.6c0-1.8-0.6-3.5-1.8-5C515.1,81.7,513.1,80.7,510.9,80.7z M506.4,87l0.3-0.8c1.1-1.6,2.4-2.4,4-2.4
			c0.8,0,1.5,0.2,2.3,0.6c1.1,0.7,1.8,1.5,2.1,2.5H506.4z"/>
		<path class="st0" d="M503,80.7c-2.5,0-4.5,0.6-6.2,1.8h0v-1.8h-3.1v15.5h3.1v-7.6c0-0.5,0.1-1.1,0.4-1.7c0.9-2.1,2.8-3.1,5.8-3.1
			V80.7z"/>
		<g>
			<polygon class="st0" points="453.4,88.5 459.9,80.7 455.9,80.7 455.5,81.2 451.4,86.1 446.9,80.7 446.9,80.7 446.9,80.7 
				443.1,80.7 443.7,81.4 449.4,88.5 449.4,88.5 442.9,96.2 442.9,96.3 447,96.3 451.4,90.9 455.9,96.3 460,96.3 			"/>
		</g>
		<polygon class="st0" points="529,80.7 525.4,80.7 525.4,77.9 522.4,77.9 522.4,80.7 518.7,80.7 518.7,83.7 522.4,83.7 522.4,96.3 
			525.4,96.3 525.4,83.7 529,83.7 		"/>
	</g>
	<path class="st0" d="M419.8,75.3"/>
</g>
</svg>
