<?xml version="1.0" encoding="utf-8"?>
<!-- Generator: Adobe Illustrator 23.0.4, SVG Export Plug-In . SVG Version: 6.00 Build 0)  -->
<svg version="1.1" id="Layer_1" xmlns="http://www.w3.org/2000/svg" xmlns:xlink="http://www.w3.org/1999/xlink" x="0px" y="0px"
	 viewBox="0 0 275 34" style="enable-background:new 0 0 275 34;" xml:space="preserve">
<style type="text/css">
	.st0{fill:#FFFFFF;}
</style>
<g>
	<g>
		<polygon class="st0" points="12.09,11.03 7.18,4.7 -0.21,4.7 4.87,11.03 		"/>
		<polygon class="st0" points="25.57,4.7 18.18,4.7 13.27,11.03 20.5,11.03 		"/>
		<polygon class="st0" points="5.47,11.98 6.49,13.4 11.7,13.4 12.49,13.4 18.88,13.4 19.91,11.96 12.49,11.83 11.7,11.83 		"/>
		<polygon class="st0" points="25.8,24.47 23.25,24.47 23.25,21.83 20.99,21.83 20.99,18.99 18.65,18.99 18.65,16.42 14.79,16.42 
			14.79,19.31 16.39,22.56 10.24,22.55 9.43,24.46 17.34,24.48 18.74,27.34 25.8,27.34 		"/>
		<path class="st0" d="M6.8,27.34h10.75l-1.02-1.91H7.74l1.94-3.95h5.22l-1.02-1.91h-3.26l0.12-0.25v-3.58h1.1h0.5h7.18l-0.75-1.36
			c0.03,0.03-5.39-0.06-6.66-0.06c-1.06,0-5.58,0.09-5.54,0.06l-0.75,1.36H6.9v3.26H4.56v2.84H3.81H2.29v2.64H0.81h-1.07v2.87h6.07
			H6.8z"/>
	</g>
	<g>
		<path class="st0" d="M41.06,10.19h3.75l4.2,5l3.79-4.59l0.37-0.41h3.75l-6.04,7.26l6.04,7.29h-3.75l-4.2-5l-4.13,5h-3.79V24.7
			l6.02-7.23v-0.03L41.06,10.19z"/>
		<path class="st0" d="M63.93,10.19c2.33,0,4.29,1.01,5.88,3.02l0.07,0.12c-1.52,1.15-2.31,1.73-2.36,1.73
			c-0.92-1.32-2.15-1.98-3.69-1.98c-1.47,0-2.7,0.7-3.69,2.1c-0.42,0.78-0.63,1.54-0.63,2.29c0,1.57,0.75,2.84,2.26,3.82
			c0.7,0.36,1.41,0.55,2.13,0.55c1.47,0,2.69-0.66,3.67-1.98l2.32,1.73c-0.14,0.3-0.61,0.8-1.41,1.52
			c-1.37,1.09-2.88,1.63-4.53,1.63h-0.09c-2.28,0-4.2-0.95-5.77-2.84c-1-1.37-1.49-2.85-1.49-4.45c0-2.05,0.8-3.84,2.39-5.38
			C60.43,10.81,62.07,10.19,63.93,10.19z"/>
		<path class="st0" d="M79.04,10.19c1.56,0,3,0.48,4.33,1.43h0.04v-1.43h2.9v14.55h-2.9v-1.43c-1.35,0.95-2.73,1.43-4.14,1.43h-0.39
			c-2.18,0-4.07-0.95-5.66-2.86c-0.98-1.38-1.47-2.84-1.47-4.4c0-2.41,1.04-4.41,3.12-5.98C76.15,10.62,77.54,10.19,79.04,10.19z
			 M74.65,17.45c0,1.62,0.77,2.92,2.33,3.88c0.65,0.34,1.32,0.51,2,0.51h0.19c1.32,0,2.47-0.61,3.44-1.84c0.53-0.8,0.8-1.6,0.8-2.39
			v-0.2c0-1.52-0.72-2.76-2.16-3.72c-0.74-0.41-1.48-0.61-2.23-0.61c-1.39,0-2.57,0.61-3.53,1.84
			C74.92,15.74,74.65,16.59,74.65,17.45z"/>
		<path class="st0" d="M89.07,10.19h2.9v1.65h0.04c1.54-1.1,3.47-1.65,5.78-1.65v2.9c-2.8,0-4.63,0.98-5.47,2.94
			c-0.23,0.57-0.35,1.1-0.35,1.59v7.13h-2.9V10.19z"/>
		<path class="st0" d="M105.24,10.19c2.14,0,3.98,0.86,5.53,2.57c1.14,1.44,1.72,3.01,1.72,4.69c-0.02,0.55-0.07,1.03-0.15,1.46
			h-11.24c0.36,1.07,1.07,1.89,2.14,2.46c0.63,0.32,1.28,0.47,1.96,0.47c1.14,0,2.18-0.42,3.1-1.27l2.03,2.03v0.04
			c-1.47,1.4-3.16,2.1-5.09,2.1h-0.06c-2.16,0-4.01-0.86-5.55-2.57c-1.14-1.43-1.72-3-1.72-4.69c0-2.16,0.86-4.01,2.57-5.57
			C101.88,10.76,103.46,10.19,105.24,10.19z M101.09,16.02h8.21c-0.32-0.97-0.98-1.77-1.97-2.39c-0.74-0.36-1.46-0.55-2.16-0.55
			c-1.54,0-2.81,0.74-3.79,2.23L101.09,16.02z"/>
		<path class="st0" d="M116.22,4.55h2.9v5.64h2.49v2.9h-2.49v11.65h-2.9V13.08h-2.5v-2.9h2.5V4.55z"/>
	</g>
	<g>
		<path class="st0" d="M135.57,10.19c2.14,0,3.98,0.86,5.53,2.57c1.14,1.44,1.72,3.01,1.72,4.69c-0.02,0.55-0.07,1.03-0.15,1.46
			h-11.24c0.36,1.07,1.07,1.89,2.14,2.46c0.63,0.32,1.28,0.47,1.96,0.47c1.14,0,2.18-0.42,3.1-1.27l2.03,2.03v0.04
			c-1.47,1.4-3.16,2.1-5.09,2.1h-0.06c-2.16,0-4.01-0.86-5.55-2.57c-1.14-1.43-1.72-3-1.72-4.69c0-2.16,0.86-4.01,2.57-5.57
			C132.22,10.76,133.8,10.19,135.57,10.19z M131.43,16.02h8.21c-0.32-0.97-0.98-1.77-1.97-2.39c-0.74-0.36-1.46-0.55-2.16-0.55
			c-1.54,0-2.81,0.74-3.79,2.23L131.43,16.02z"/>
		<path class="st0" d="M142.23,10.19h3.76l4.2,5l3.79-4.59l0.37-0.41h3.76l-6.04,7.26l6.04,7.29h-3.76l-4.2-5l-4.13,5h-3.79V24.7
			l6.02-7.23v-0.03L142.23,10.19z"/>
		<path class="st0" d="M159.86,10.14h2.9v1.43h0.06c1.34-0.95,2.78-1.43,4.3-1.43c2.27,0,4.19,0.93,5.76,2.8
			c1.02,1.38,1.53,2.8,1.53,4.27v0.45c0,1.92-0.81,3.66-2.42,5.22c-1.47,1.21-2.99,1.82-4.55,1.82h-0.57
			c-1.36,0-2.71-0.47-4.04-1.41h-0.06v8.45h-2.9V10.14z M162.76,17.4c0,1.63,0.76,2.92,2.29,3.88c0.7,0.34,1.34,0.51,1.91,0.51h0.39
			c1.2,0,2.3-0.57,3.31-1.72c0.57-0.85,0.86-1.71,0.86-2.59v-0.12c0-1.4-0.63-2.58-1.88-3.53c-0.81-0.53-1.64-0.8-2.49-0.8
			c-1.4,0-2.59,0.61-3.56,1.84C163.04,15.7,162.76,16.54,162.76,17.4z"/>
		<path class="st0" d="M182.97,10.19c2.14,0,3.98,0.86,5.53,2.57c1.14,1.44,1.72,3.01,1.72,4.69c-0.02,0.55-0.07,1.03-0.15,1.46
			h-11.24c0.36,1.07,1.07,1.89,2.14,2.46c0.63,0.32,1.28,0.47,1.96,0.47c1.14,0,2.18-0.42,3.1-1.27l2.03,2.03v0.04
			c-1.47,1.4-3.16,2.1-5.09,2.1h-0.06c-2.16,0-4.01-0.86-5.55-2.57c-1.14-1.43-1.72-3-1.72-4.69c0-2.16,0.86-4.01,2.57-5.57
			C179.61,10.76,181.2,10.19,182.97,10.19z M178.83,16.02h8.21c-0.32-0.97-0.98-1.77-1.97-2.39c-0.74-0.36-1.46-0.55-2.16-0.55
			c-1.54,0-2.81,0.74-3.79,2.23L178.83,16.02z"/>
		<path class="st0" d="M203.11,4.61h2.9v20.12h-2.9v-1.43c-1.35,0.95-2.79,1.43-4.3,1.43h-0.15c-2.35,0-4.32-1.04-5.93-3.12
			c-0.85-1.31-1.27-2.7-1.27-4.17c0-2.39,1.04-4.38,3.12-5.98c1.29-0.85,2.7-1.28,4.23-1.28c1.52,0,2.95,0.48,4.26,1.43h0.04V4.61z
			 M194.35,17.47c0,1.54,0.72,2.79,2.16,3.76c0.68,0.41,1.44,0.61,2.29,0.61c1.44,0,2.64-0.67,3.61-2c0.46-0.75,0.7-1.51,0.7-2.26
			v-0.22c0-1.36-0.64-2.52-1.91-3.49c-0.76-0.51-1.6-0.77-2.51-0.77c-1.42,0-2.62,0.66-3.59,1.98
			C194.6,15.83,194.35,16.64,194.35,17.47z"/>
		<path class="st0" d="M210.25,6.28c0.69,0,1.15,0.38,1.39,1.14l0.04,0.32c0,0.67-0.36,1.14-1.08,1.41l-0.29,0.03h-0.12
			c-0.66,0-1.11-0.36-1.37-1.08l-0.04-0.29v-0.1c0-0.66,0.35-1.12,1.04-1.37L210.25,6.28z M208.78,10.19h2.9v14.55h-2.9V10.19z"/>
		<path class="st0" d="M216.3,4.55h2.9v5.64h2.49v2.9h-2.49v11.65h-2.9V13.08h-2.5v-2.9h2.5V4.55z"/>
		<path class="st0" d="M225.23,6.28c0.69,0,1.15,0.38,1.39,1.14l0.04,0.32c0,0.67-0.36,1.14-1.08,1.41l-0.29,0.03h-0.12
			c-0.66,0-1.11-0.36-1.37-1.08l-0.04-0.29v-0.1c0-0.66,0.35-1.12,1.04-1.37L225.23,6.28z M223.76,10.19h2.9v14.55h-2.9V10.19z"/>
		<path class="st0" d="M235.76,10.19c1.91,0,3.61,0.71,5.1,2.14c1.42,1.5,2.13,3.22,2.13,5.15c0,2.02-0.78,3.81-2.35,5.35
			c-1.44,1.28-3.08,1.92-4.9,1.92h-0.06c-2.16,0-4.01-0.86-5.55-2.57c-1.14-1.43-1.72-3-1.72-4.69c0-1.47,0.44-2.86,1.31-4.17
			C231.28,11.23,233.29,10.19,235.76,10.19z M231.35,17.22v0.19l-0.04,0.04l0.04,0.03v0.2c0,1.18,0.56,2.27,1.68,3.27
			c0.85,0.6,1.74,0.9,2.67,0.9c1.43,0,2.62-0.61,3.57-1.84c0.55-0.82,0.83-1.66,0.83-2.52c0-1.51-0.7-2.76-2.1-3.76
			c-0.76-0.42-1.55-0.63-2.36-0.63c-1.45,0-2.66,0.68-3.63,2.04C231.57,15.87,231.35,16.57,231.35,17.22z"/>
		<path class="st0" d="M244.74,10.19h2.9v1.27h0.04c1.22-0.85,2.66-1.27,4.33-1.27c3.23,0,5.48,1.46,6.74,4.37
			c0.36,0.95,0.55,1.89,0.55,2.8v7.39h-2.9v-7.29c0-1.17-0.37-2.2-1.12-3.1c-0.78-0.85-1.87-1.27-3.27-1.27
			c-1.99,0-3.33,0.86-4.02,2.57c-0.23,0.61-0.35,1.23-0.35,1.88v7.2h-2.9V10.19z"/>
		<path class="st0" d="M266.34,10.19h8.41v2.9h-8.41c-0.79,0-1.28,0.13-1.47,0.39c-0.27,0.39-0.41,0.77-0.41,1.14
			c0,0.65,0.3,1.08,0.9,1.31l0.53,0.1h3.89c2.35,0,3.89,0.9,4.61,2.7c0.19,0.57,0.29,1.14,0.29,1.69c0,1.79-0.8,3.08-2.39,3.88
			c-0.65,0.3-1.25,0.45-1.82,0.45h-8.85v-2.9h8.69c0.67,0,1.13-0.29,1.37-0.86l0.1-0.61c0-0.98-0.59-1.47-1.78-1.47h-4.2
			c-1.1,0-2.12-0.42-3.06-1.27c-0.79-0.83-1.18-1.85-1.18-3.06c0-1.09,0.38-2.11,1.14-3.05C263.46,10.63,264.68,10.19,266.34,10.19z
			"/>
	</g>
</g>
</svg>
